# xmcd CD database file
#
# Track frame offsets:
#	150
#	13580
#	22988
#	37130
#	51158
#	60503
#	72180
#	90043
#	110678
#	132358
#	143955
#	158125
#	171768
#	185215
#	199268
#	213238
#	226383
#	240640
#	255428
#	273063
#
# Disc length: 3802 seconds
#
# Revision: 0
# Processed by: cddbd v1.5.1PL2 Copyright (c) Steve Scherf et al.
# Submitted via: CDex 1.51
#
DISCID=140ed814
DTITLE=C.Parker&D.Gillespie - THE CHARLIE PARKER-DIZZY GILLESPIE YEARS
DYEAR=1900
DGENRE=Jazz
TTITLE0=A Night in Tunisia(PT.1)
TTITLE1=A Night in Tunisia(PT.2)
TTITLE2=Confirmation
TTITLE3=Groovin' High(PT.!)
TTITLE4=Groovin' High(PT.2)
TTITLE5=School Days
TTITLE6=Swing low sweet Cadillac
TTITLE7=Good Bait
TTITLE8=The Champ
TTITLE9=My man
TTITLE10=Bird Feathers
TTITLE11=Air Conditioning
TTITLE12=Quasimodo
TTITLE13=Crazeolozy
TTITLE14=Dewey Square
TTITLE15=Bongo bop
TTITLE16=Klactoveededstene
TTITLE17=Ooh Shoobbee doobee
TTITLE18=I've got the Bluest Blues
TTITLE19=Dizzy Atomosphere
EXTD=
EXTT0=
EXTT1=
EXTT2=
EXTT3=
EXTT4=
EXTT5=
EXTT6=
EXTT7=
EXTT8=
EXTT9=
EXTT10=
EXTT11=
EXTT12=
EXTT13=
EXTT14=
EXTT15=
EXTT16=
EXTT17=
EXTT18=
EXTT19=
PLAYORDER=
